#!OML:ASF E:\Style4\Style4.ASF
:FULLY-SPECIFIED
:DEGREES
1124
root 0.254813 17.2856 -0.768236 1.99448 18.7393 1.1841
lowerback 15.0056 4.10688 -0.134932
upperback 11.1616 5.51539 0.697405
thorax 3.38894 2.80336 0.165056
lowerneck 10.2859 -2.71207 -5.89116
upperneck 3.16794 -4.15361 2.46366
head -0.565942 -2.13491 1.9287
rclavicle 5.52621e-014 -1.66979e-014
rhumerus 16.0211 18.0891 -84.8181
rradius 133.496
rwrist 17.4739
rhand 35.45 -10.3916
rfingers 7.12502
rthumb 58.5285 -25.6291
lclavicle 5.52621e-014 -1.66979e-014
lhumerus 18.9908 -22.7876 86.1134
lradius 135.269
lwrist -12.5157
lhand 26.064 46.3105
lfingers 7.12502
lthumb 50.1362 67.4614
rfemur -19.002 -17.9677 16.7162
rtibia 45.1431
rfoot -24.8335 -22.3858
rtoes -11.1221
lfemur -24.7006 -6.89829 -21.171
ltibia 44.1061
lfoot -19.7855 4.22356
ltoes -16.4125
1125
root 0.256979 17.2908 -0.769255 2.06958 18.6458 1.2656
lowerback 14.9788 4.15783 -0.0950579
upperback 11.1308 5.58597 0.653142
thorax 3.37791 2.84231 0.0892858
lowerneck 10.2937 -2.75894 -5.82622
upperneck 3.17634 -4.2086 2.434
head -0.563725 -2.16116 1.90906
rclavicle -8.74653e-015 2.38542e-015
rhumerus 16.1667 18.023 -84.7947
rradius 133.451
rwrist 17.5954
rhand 34.8917 -10.1864
rfingers 7.12502
rthumb 58.0428 -25.8694
lclavicle -8.74653e-015 2.38542e-015
lhumerus 18.7268 -22.6992 86.0179
lradius 135.374
lwrist -12.139
lhand 26.3425 46.3943
lfingers 7.12502
lthumb 50.3908 67.4094
rfemur -19.0367 -17.8988 16.6371
rtibia 45.0681
rfoot -24.7902 -22.3404
rtoes -11.1194
lfemur -24.6634 -6.82452 -21.264
ltibia 43.9651
lfoot -19.7221 4.21619
ltoes -16.2698
1126
root 0.259273 17.2982 -0.770083 2.14142 18.5468 1.29476
lowerback 14.9358 4.15644 -0.0573166
upperback 11.1058 5.58733 0.635108
thorax 3.37865 2.84517 0.0516434
lowerneck 10.1843 -2.73997 -5.77426
upperneck 3.25836 -4.1722 2.33806
head -0.523027 -2.1416 1.86319
rclavicle 3.85642e-014 -3.10104e-014
rhumerus 16.3783 18.0849 -84.8334
rradius 133.421
rwrist 17.6324
rhand 34.5361 -10.0992
rfingers 7.12502
rthumb 57.7323 -26.0584
lclavicle 3.85642e-014 -3.10104e-014
lhumerus 18.3945 -22.5759 85.8917
lradius 135.361
lwrist -12.2568
lhand 26.2565 46.1666
lfingers 7.12502
lthumb 50.3122 67.2239
rfemur -19.0815 -17.808 16.627
rtibia 44.968
rfoot -24.6989 -22.3711
rtoes -11.0081
lfemur -24.6543 -6.75076 -21.2923
ltibia 43.832
lfoot -19.6627 4.1946
ltoes -16.0714
1127
root 0.261335 17.3063 -0.769906 2.17719 18.4539 1.29802
lowerback 14.8855 4.10882 -0.0548768
upperback 11.1243 5.52429 0.680268
thorax 3.42041 2.81153 0.109444
lowerneck 10.0375 -2.66579 -5.90178
upperneck 3.31971 -4.08022 2.2656
head -0.481501 -2.09639 1.85493
rclavicle -2.8625e-014 7.95139e-016
rhumerus 16.7239 18.3402 -84.7151
rradius 133.371
rwrist 17.6155
rhand 34.1243 -10.182
rfingers 7.12502
rthumb 57.3718 -26.4541
lclavicle -2.8625e-014 7.95139e-016
lhumerus 18.0196 -22.4627 85.7756
lradius 135.244
lwrist -13.1176
lhand 25.7146 45.7568
lfingers 7.12502
lthumb 49.8164 67.0755
rfemur -19.0879 -17.7095 16.6335
rtibia 44.8591
rfoot -24.6282 -22.3736
rtoes -10.9287
lfemur -24.6124 -6.66008 -21.2983
ltibia 43.699
lfoot -19.6332 4.299
ltoes -16.5479
1128
root 0.261798 17.3142 -0.771126 2.19361 18.3529 1.26859
lowerback 14.8857 4.07029 -0.0612268
upperback 11.1216 5.47103 0.7576
thorax 3.4087 2.78097 0.199207
lowerneck 9.94344 -2.61962 -6.02214
upperneck 3.34228 -4.0269 2.15675
head -0.460334 -2.06952 1.83666
rclavicle -8.22969e-014 2.94201e-014
rhumerus 17.0358 18.6761 -84.5977
rradius 133.233
rwrist 17.6912
rhand 33.399 -10.1497
rfingers 7.12502
rthumb 56.7341 -26.9551
lclavicle -8.22969e-014 2.94201e-014
lhumerus 17.6124 -22.206 85.7315
lradius 135.21
lwrist -13.5632
lhand 25.3898 45.7516
lfingers 7.12502
lthumb 49.5188 67.2234
rfemur -19.084 -17.6221 16.6799
rtibia 44.7395
rfoot -24.5354 -22.3581
rtoes -10.8483
lfemur -24.5653 -6.55863 -21.2662
ltibia 43.5653
lfoot -19.6165 4.37456
ltoes -16.9207
1129
root 0.263356 17.3205 -0.772816 2.23643 18.2422 1.26255
lowerback 14.8892 4.10316 0.0179603
upperback 11.0892 5.52124 0.752839
thorax 3.3794 2.81032 0.142841
lowerneck 9.90034 -2.6712 -5.85892
upperneck 3.32753 -4.07603 2.03749
head -0.460396 -2.09035 1.7694
rclavicle 2.8625e-014 -2.94201e-014
rhumerus 17.2162 18.751 -84.6123
rradius 133.02
rwrist 17.9515
rhand 32.361 -9.92256
rfingers 7.12502
rthumb 55.8161 -27.454
lclavicle 2.8625e-014 -2.94201e-014
lhumerus 17.2882 -22.0422 85.6857
lradius 135.324
lwrist -13.3877
lhand 25.6346 46.3197
lfingers 7.12502
lthumb 49.7431 67.6763
rfemur -19.1109 -17.5224 16.7027
rtibia 44.6263
rfoot -24.4472 -22.3528
rtoes -10.7202
lfemur -24.5287 -6.47831 -21.2598
ltibia 43.4346
lfoot -19.5684 4.39662
ltoes -16.7422
1130
root 0.26461 17.3277 -0.774943 2.29325 18.0971 1.28769
lowerback 14.9114 4.18093 0.163268
upperback 11.0362 5.638 0.66746
thorax 3.33335 2.87975 -0.043804
lowerneck 10.0075 -2.79433 -5.39387
upperneck 3.19362 -4.19717 1.84092
head -0.527843 -2.14184 1.63192
rclavicle -2.34566e-014 -1.19271e-014
rhumerus 17.365 18.6221 -84.6999
rradius 132.763
rwrist 18.2274
rhand 31.4371 -9.65679
rfingers 7.12502
rthumb 54.9941 -27.7997
lclavicle -2.34566e-014 -1.19271e-014
lhumerus 17.0736 -21.9629 85.5843
lradius 135.505
lwrist -12.9433
lhand 26.0923 47.1039
lfingers 7.12502
lthumb 50.1621 68.2412
rfemur -19.1472 -17.3881 16.6976
rtibia 44.5091
rfoot -24.3432 -22.3631
rtoes -10.732
lfemur -24.5002 -6.33169 -21.2868
ltibia 43.3028
lfoot -19.5079 4.37422
ltoes -16.5886
1131
root 0.264978 17.3348 -0.778364 2.34374 17.9526 1.31785
lowerback 14.9287 4.21457 0.273276
upperback 11.0164 5.69337 0.603649
thorax 3.32069 2.91569 -0.179272
lowerneck 10.0519 -2.87332 -5.0996
upperneck 3.04694 -4.27466 1.72462
head -0.586523 -2.17461 1.5488
rclavicle -6.40087e-014 2.54444e-014
rhumerus 17.5872 18.5773 -84.6806
rradius 132.456
rwrist 18.4458
rhand 30.5261 -9.52208
rfingers 7.12502
rthumb 54.1793 -28.2381
lclavicle -6.40087e-014 2.54444e-014
lhumerus 16.9071 -21.6253 85.5119
lradius 135.648
lwrist -12.6483
lhand 26.4997 47.6193
lfingers 7.12502
lthumb 50.5343 68.5569
rfemur -19.1775 -17.267 16.6878
rtibia 44.3898
rfoot -24.2255 -22.3769
rtoes -10.723
lfemur -24.4758 -6.2166 -21.3164
ltibia 43.1838
lfoot -19.4754 4.39061
ltoes -16.5289
1132
root 0.265593 17.3426 -0.780266 2.37851 17.8593 1.28947
lowerback 14.8582 4.21687 0.383678
upperback 11.0606 5.70833 0.614466
thorax 3.41557 2.92923 -0.22209
lowerneck 10.0132 -2.93339 -5.03496
upperneck 2.8569 -4.34798 1.70677
head -0.639399 -2.20868 1.53643
rclavicle -3.22031e-014 1.51076e-014
rhumerus 17.9266 18.5489 -84.5182
rradius 132.058
rwrist 18.6033
rhand 29.6979 -9.37038
rfingers 7.12502
rthumb 53.4352 -28.5832
lclavicle -3.22031e-014 1.51076e-014
lhumerus 16.7881 -21.3339 85.6071
lradius 135.61
lwrist -12.8652
lhand 26.7273 47.6805
lfingers 7.12502
lthumb 50.7421 68.5047
rfemur -19.1775 -17.1879 16.7381
rtibia 44.263
rfoot -24.1976 -22.336
rtoes -10.4756
lfemur -24.4561 -6.17767 -21.2785
ltibia 43.074
lfoot -19.4353 4.38075
ltoes -16.2914
1133
root 0.265926 17.3471 -0.781096 2.40211 17.719 1.26199
lowerback 14.916 4.25677 0.557046
upperback 11.0185 5.77831 0.566124
thorax 3.36295 2.97531 -0.382328
lowerneck 10.0438 -3.03165 -4.94972
upperneck 2.73854 -4.47092 1.79089
head -0.677991 -2.26968 1.55529
rclavicle 1.08139e-013 -3.26007e-014
rhumerus 18.1143 18.4214 -84.5375
rradius 131.598
rwrist 18.8243
rhand 29.0921 -9.20679
rfingers 7.12502
rthumb 52.8889 -28.7692
lclavicle 1.08139e-013 -3.26007e-014
lhumerus 16.7509 -21.355 85.6505
lradius 135.532
lwrist -13.3375
lhand 26.7779 47.6626
lfingers 7.12502
lthumb 50.7882 68.4614
rfemur -19.1644 -17.0433 16.7853
rtibia 44.1338
rfoot -24.1644 -22.3079
rtoes -10.1812
lfemur -24.4255 -6.05599 -21.2449
ltibia 42.9788
lfoot -19.3701 4.36965
ltoes -16.3108
